<svg xmlns="http://www.w3.org/2000/svg" xmlns:xlink="http://www.w3.org/1999/xlink" viewBox="0 0 337.3 356.4"><defs><style>.cls-1{fill:#1a1a1a;}.cls-2{fill:none;}.cls-3{clip-path:url(#clip-path);}.cls-4{clip-path:url(#clip-path-2);}.cls-5{fill:#c4c6c8;}.cls-6{fill:#c2c4c6;}.cls-7{fill:#c0c2c4;}.cls-8{fill:#bec0c2;}.cls-9{fill:#bcbec0;}.cls-10{fill:#babcbe;}.cls-11{fill:#b8babd;}.cls-12{fill:#b7b9bb;}.cls-13{fill:#b5b7b9;}.cls-14{fill:#b3b5b7;}.cls-15{fill:#b1b3b6;}.cls-16{fill:#afb2b4;}.cls-17{fill:#aeb0b2;}.cls-18{fill:#acaeb1;}.cls-19{fill:#aaacaf;}.cls-20{fill:#a9abad;}.cls-21{fill:#a7a9ac;}.cls-22{fill:#a5a8aa;}.cls-23{fill:#a4a6a9;}.cls-24{fill:#a2a4a7;}.cls-25{fill:#a1a3a5;}.cls-26{fill:#9fa1a4;}.cls-27{fill:#9ea0a2;}.cls-28{fill:#9c9ea1;}.cls-29{fill:#9b9d9f;}.cls-30{fill:#999b9e;}.cls-31{fill:#989a9c;}.cls-32{fill:#96989b;}.cls-33{fill:#95979a;}.cls-34{fill:#939698;}.cls-35{fill:#929497;}.cls-36{fill:#919395;}.cls-37{fill:#8f9194;}.cls-38{fill:#8e9093;}.cls-39{fill:#8d8f91;}.cls-40{fill:#8c8e90;}.cls-41{fill:#8a8c8f;}.cls-42{fill:#898b8e;}.cls-43{fill:#888a8c;}.cls-44{fill:#87888b;}.cls-45{fill:#85878a;}.cls-46{fill:#848689;}.cls-47{fill:#838587;}.cls-48{fill:#828486;}.cls-49{fill:#818285;}.cls-50{fill:#7f8184;}.cls-51{fill:#7e8083;}.cls-52{fill:#7d7f82;}.cls-53{fill:#7c7e80;}.cls-54{fill:#7b7d7f;}.cls-55{fill:#7a7c7e;}.cls-56{fill:#797a7d;}.cls-57{fill:#78797c;}.cls-58{fill:#77787b;}.cls-59{fill:#76777a;}.cls-60{fill:#757679;}.cls-61{fill:#747578;}.cls-62{fill:#727477;}.cls-63{fill:#717375;}.cls-64{fill:#707274;}.cls-65{fill:#6f7173;}.cls-66{fill:#6e7072;}.cls-67{fill:#6d6f71;}.cls-68{fill:#6c6e70;}.cls-69{fill:#6b6d6f;}.cls-70{fill:#6a6c6e;}.cls-71{fill:#6a6b6d;}.cls-72{fill:#696a6c;}.cls-73{fill:#68696b;}.cls-74{fill:#67686a;}.cls-75{fill:#666769;}.cls-76{fill:#656668;}.cls-77{fill:#646567;}.cls-78{fill:#636467;}.cls-79{fill:#626366;}.cls-80{fill:#616265;}.cls-81{fill:#606164;}.cls-82{fill:#5f6163;}.cls-83{fill:#5f6062;}.cls-84{fill:#5e5f61;}.cls-85{fill:#5d5e60;}.cls-86{fill:#5c5d5f;}.cls-87{fill:#5b5c5e;}.cls-88{fill:#5a5b5e;}.cls-89{fill:#5a5a5d;}.cls-90{fill:#595a5c;}.cls-91{fill:#58595b;}.cls-92{fill:#57585a;}.cls-93{fill:#565759;}.cls-94{fill:#565659;}.cls-95{fill:#555658;}.cls-96{fill:#545557;}.cls-97{fill:#545456;}.cls-98{fill:#535355;}.cls-99{fill:#525355;}.cls-100{fill:#515254;}.cls-101{fill:#515153;}.cls-102{fill:#505052;}.cls-103{fill:#4f5052;}.cls-104{fill:#4f4f51;}.cls-105{fill:#4e4e50;}.cls-106{fill:#4d4e50;}.cls-107{fill:#4d4d4f;}.cls-108{fill:#4c4c4e;}.cls-109{fill:#4b4b4d;}.cls-110{fill:#4a4b4c;}.cls-111{fill:#4a4a4c;}.cls-112{fill:#49494b;}.cls-113{fill:#48484a;}.cls-114{fill:#484849;}.cls-115{fill:#474749;}.cls-116{fill:#474748;}.cls-117{fill:#464648;}.cls-118{fill:#464547;}.cls-119{fill:#454547;}.cls-120{fill:#454446;}.cls-121{fill:#444446;}.cls-122{fill:#444345;}.cls-123{fill:#434345;}.cls-124{fill:#434344;}.cls-125{fill:#424244;}.cls-126{fill:#424243;}.cls-127{fill:#424143;}.cls-128{fill:#414143;}.cls-129{fill:#414042;}.cls-130{fill:#404041;}.cls-131{fill:#403f41;}.cls-132{fill:#3f3f40;}.cls-133{fill:#3f3e40;}.cls-134{fill:#3e3e3f;}.cls-135{fill:#3e3d3f;}.cls-136{fill:#3e3d3e;}.cls-137{fill:#3d3d3e;}.cls-138{fill:#3d3c3e;}.cls-139{fill:#3d3c3d;}.cls-140{fill:#3c3c3d;}.cls-141{fill:#3c3b3d;}.cls-142{fill:#3c3b3c;}.cls-143{fill:#3b3b3c;}.cls-144{fill:#3b3a3c;}.cls-145{fill:#3b3a3b;}.cls-146{fill:#3a393b;}.cls-147{fill:#3a393a;}.cls-148{fill:#414142;}.cls-149{clip-path:url(#clip-path-3);}</style><clipPath id="clip-path" transform="translate(19.1 19.1)"><polygon class="cls-1" points="140 318.2 0 178.2 0 140 140 280 260.9 159.1 280 178.2 140 318.2"/></clipPath><clipPath id="clip-path-2" transform="translate(19.1 19.1)"><polygon class="cls-2" points="0 140 140 0 178.2 0 38.2 140 159.1 260.9 140 280 0 140"/></clipPath><clipPath id="clip-path-3" transform="translate(19.1 19.1)"><polygon class="cls-2" points="318.2 178.2 178.2 318.2 140 318.2 280 178.2 159.1 57.3 178.2 38.2 318.2 178.2"/></clipPath></defs><g id="Layer_2" data-name="Layer 2"><g id="Layer_1-2" data-name="Layer 1"><polygon class="cls-1" points="159.1 337.3 19.1 197.3 19.1 159.1 159.1 299.1 280 178.2 299.1 197.3 159.1 337.3"/><g class="cls-3"><path class="cls-1" d="M-19.1,159.1,140,318.2Z" transform="translate(19.1 19.1)"/><rect class="cls-1" x="60.3" y="125.7" width="1.2" height="225" transform="translate(-131.5 131.9) rotate(-45)"/><rect class="cls-1" x="61.1" y="124.9" width="1.2" height="225" transform="translate(-130.7 132.3) rotate(-45)"/><rect class="cls-1" x="61.9" y="124.1" width="1.2" height="225" transform="translate(-129.9 132.6) rotate(-45)"/><rect class="cls-1" x="62.8" y="123.3" width="1.2" height="225" transform="translate(-129.1 132.9) rotate(-45)"/><rect class="cls-1" x="63.6" y="122.4" width="1.2" height="225" transform="translate(-128.2 133.3) rotate(-45)"/><rect class="cls-1" x="64.4" y="121.6" width="1.2" height="225" transform="translate(-127.4 133.6) rotate(-45)"/><rect class="cls-1" x="65.3" y="120.8" width="1.2" height="225" transform="translate(-126.6 134) rotate(-45)"/><rect class="cls-1" x="66.1" y="119.9" width="1.2" height="225" transform="translate(-125.7 134.3) rotate(-45)"/><rect class="cls-1" x="66.9" y="119.1" width="1.2" height="225" transform="translate(-124.9 134.7) rotate(-45)"/><rect class="cls-1" x="67.7" y="118.3" width="1.2" height="225" transform="translate(-124.1 135) rotate(-45)"/><rect class="cls-1" x="68.6" y="117.5" width="1.2" height="225" transform="translate(-123.3 135.3) rotate(-45)"/><rect class="cls-1" x="69.4" y="116.6" width="1.2" height="225" transform="translate(-122.4 135.7) rotate(-45)"/><rect class="cls-1" x="70.2" y="115.8" width="1.2" height="225" transform="translate(-121.6 136) rotate(-45)"/><rect class="cls-1" x="71" y="115" width="1.2" height="225" transform="translate(-120.8 136.4) rotate(-45)"/><rect class="cls-1" x="71.9" y="114.1" width="1.2" height="225" transform="translate(-120 136.7) rotate(-45)"/><rect class="cls-1" x="72.7" y="113.3" width="1.2" height="225" transform="translate(-119.1 137.1) rotate(-45)"/><rect class="cls-1" x="73.5" y="112.5" width="1.2" height="225" transform="translate(-118.3 137.4) rotate(-45)"/><rect class="cls-1" x="74.4" y="111.7" width="1.2" height="225" transform="translate(-117.5 137.7) rotate(-45)"/><rect class="cls-1" x="75.2" y="110.8" width="1.2" height="225" transform="translate(-116.6 138.1) rotate(-45)"/><rect class="cls-1" x="76" y="110" width="1.2" height="225" transform="translate(-115.8 138.4) rotate(-45)"/><rect class="cls-1" x="76.8" y="109.2" width="1.2" height="225" transform="translate(-115 138.8) rotate(-45)"/><rect class="cls-1" x="77.7" y="108.4" width="1.2" height="225" transform="translate(-114.2 139.1) rotate(-45)"/><rect class="cls-1" x="78.5" y="107.5" width="1.2" height="225" transform="translate(-113.3 139.5) rotate(-45)"/><rect class="cls-1" x="79.3" y="106.7" width="1.2" height="225" transform="translate(-112.5 139.8) rotate(-45)"/><rect class="cls-1" x="80.1" y="105.9" width="1.2" height="225" transform="translate(-111.7 140.1) rotate(-45)"/><rect class="cls-1" x="81" y="105" width="1.2" height="225" transform="translate(-110.8 140.5) rotate(-45)"/><rect class="cls-1" x="81.8" y="104.2" width="1.2" height="225" transform="translate(-110 140.8) rotate(-45)"/><rect class="cls-1" x="82.6" y="103.4" width="1.2" height="225" transform="translate(-109.2 141.2) rotate(-45)"/><rect class="cls-1" x="83.5" y="102.6" width="1.2" height="225" transform="translate(-108.4 141.5) rotate(-45)"/><rect class="cls-1" x="84.3" y="101.7" width="1.2" height="225" transform="translate(-107.5 141.9) rotate(-45)"/><rect class="cls-1" x="85.1" y="100.9" width="1.2" height="225" transform="translate(-106.7 142.2) rotate(-45)"/><rect class="cls-1" x="85.9" y="100.1" width="1.2" height="225" transform="translate(-105.9 142.5) rotate(-45)"/><rect class="cls-1" x="86.8" y="99.3" width="1.2" height="225" transform="translate(-105.1 142.9) rotate(-45)"/><rect class="cls-1" x="87.6" y="98.4" width="1.2" height="225" transform="translate(-104.2 143.2) rotate(-45)"/><rect class="cls-1" x="88.4" y="97.6" width="1.2" height="225" transform="translate(-103.4 143.6) rotate(-45)"/><rect class="cls-1" x="89.3" y="96.8" width="1.2" height="225" transform="translate(-102.6 143.9) rotate(-45)"/><rect class="cls-1" x="90.1" y="95.9" width="1.2" height="225" transform="translate(-101.7 144.3) rotate(-45)"/><rect class="cls-1" x="90.9" y="95.1" width="1.2" height="225" transform="translate(-100.9 144.6) rotate(-45)"/><rect class="cls-1" x="91.7" y="94.3" width="1.2" height="225" transform="translate(-100.1 144.9) rotate(-45)"/><rect class="cls-1" x="92.6" y="93.5" width="1.2" height="225" transform="translate(-99.3 145.3) rotate(-45)"/><rect class="cls-1" x="93.4" y="92.6" width="1.2" height="225" transform="translate(-98.4 145.6) rotate(-45)"/><rect class="cls-1" x="94.2" y="91.8" width="1.2" height="225" transform="translate(-97.6 146) rotate(-45)"/><rect class="cls-1" x="95" y="91" width="1.2" height="225" transform="translate(-96.8 146.3) rotate(-45)"/><rect class="cls-1" x="95.9" y="90.2" width="1.2" height="225" transform="translate(-96 146.7) rotate(-45)"/><rect class="cls-1" x="96.7" y="89.3" width="1.2" height="225" transform="translate(-95.1 147) rotate(-45)"/><rect class="cls-1" x="97.5" y="88.5" width="1.2" height="225" transform="translate(-94.3 147.3) rotate(-45)"/><rect class="cls-1" x="98.4" y="87.7" width="1.2" height="225" transform="translate(-93.5 147.7) rotate(-45)"/><rect class="cls-1" x="99.2" y="86.8" width="1.2" height="225" transform="translate(-92.6 148) rotate(-45)"/><rect class="cls-1" x="100" y="86" width="1.2" height="225" transform="translate(-91.8 148.4) rotate(-45)"/><rect class="cls-1" x="100.8" y="85.2" width="1.2" height="225" transform="translate(-91 148.7) rotate(-45)"/><rect class="cls-1" x="101.7" y="84.4" width="1.2" height="225" transform="translate(-90.2 149.1) rotate(-45)"/><rect class="cls-1" x="102.5" y="83.5" width="1.2" height="225" transform="translate(-89.3 149.4) rotate(-45)"/><rect class="cls-1" x="103.3" y="82.7" width="1.2" height="225" transform="translate(-88.5 149.7) rotate(-45)"/><rect class="cls-1" x="104.1" y="81.9" width="1.2" height="225" transform="translate(-87.7 150.1) rotate(-45)"/><rect class="cls-1" x="105" y="81" width="1.2" height="225" transform="translate(-86.8 150.4) rotate(-45)"/><rect class="cls-1" x="105.8" y="80.2" width="1.2" height="225" transform="translate(-86 150.8) rotate(-45)"/><rect class="cls-1" x="106.6" y="79.4" width="1.2" height="225" transform="translate(-85.2 151.1) rotate(-45)"/><rect class="cls-1" x="107.5" y="78.6" width="1.2" height="225" transform="translate(-84.4 151.5) rotate(-45)"/><rect class="cls-1" x="108.3" y="77.7" width="1.2" height="225" transform="translate(-83.5 151.8) rotate(-45)"/><rect class="cls-1" x="109.1" y="76.9" width="1.2" height="225" transform="translate(-82.7 152.1) rotate(-45)"/><rect class="cls-1" x="109.9" y="76.1" width="1.2" height="225" transform="translate(-81.9 152.5) rotate(-45)"/><rect class="cls-1" x="110.8" y="75.3" width="1.2" height="225" transform="translate(-81.1 152.8) rotate(-45)"/><rect class="cls-1" x="111.6" y="74.4" width="1.2" height="225" transform="translate(-80.2 153.2) rotate(-45)"/><rect class="cls-1" x="112.4" y="73.6" width="1.2" height="225" transform="translate(-79.4 153.5) rotate(-45)"/><rect class="cls-1" x="113.2" y="72.8" width="1.2" height="225" transform="translate(-78.6 153.8) rotate(-45)"/><rect class="cls-1" x="114.1" y="71.9" width="1.2" height="225" transform="translate(-77.7 154.2) rotate(-45)"/><rect class="cls-1" x="114.9" y="71.1" width="1.2" height="225" transform="translate(-76.9 154.5) rotate(-45)"/><rect class="cls-1" x="115.7" y="70.3" width="1.2" height="225" transform="translate(-76.1 154.9) rotate(-45)"/><rect class="cls-1" x="116.6" y="69.5" width="1.2" height="225" transform="translate(-75.3 155.2) rotate(-45)"/><rect class="cls-1" x="117.4" y="68.6" width="1.2" height="225" transform="translate(-74.4 155.6) rotate(-45)"/><rect class="cls-1" x="118.2" y="67.8" width="1.2" height="225" transform="translate(-73.6 155.9) rotate(-45)"/><rect class="cls-1" x="119" y="67" width="1.2" height="225" transform="translate(-72.8 156.2) rotate(-45)"/><rect class="cls-1" x="119.9" y="66.2" width="1.2" height="225" transform="translate(-72 156.6) rotate(-45)"/><rect class="cls-1" x="120.7" y="65.3" width="1.2" height="225" transform="translate(-71.1 156.9) rotate(-45)"/><rect class="cls-1" x="121.5" y="64.5" width="1.2" height="225" transform="translate(-70.3 157.3) rotate(-45)"/><rect class="cls-1" x="122.4" y="63.7" width="1.2" height="225" transform="translate(-69.5 157.6) rotate(-45)"/><rect class="cls-1" x="123.2" y="62.8" width="1.2" height="225" transform="translate(-68.6 158) rotate(-45)"/><rect class="cls-1" x="124" y="62" width="1.2" height="225" transform="translate(-67.8 158.3) rotate(-45)"/><rect class="cls-1" x="124.8" y="61.2" width="1.2" height="225" transform="translate(-67 158.6) rotate(-45)"/><rect class="cls-1" x="125.7" y="60.4" width="1.2" height="225" transform="translate(-66.2 159) rotate(-45)"/><rect class="cls-1" x="126.5" y="59.5" width="1.2" height="225" transform="translate(-65.3 159.3) rotate(-45)"/><rect class="cls-1" x="127.3" y="58.7" width="1.2" height="225" transform="translate(-64.5 159.7) rotate(-45)"/><rect class="cls-1" x="128.1" y="57.9" width="1.2" height="225" transform="translate(-63.7 160) rotate(-45)"/><rect class="cls-1" x="129" y="57" width="1.2" height="225" transform="translate(-62.9 160.4) rotate(-45)"/><rect class="cls-1" x="129.8" y="56.2" width="1.2" height="225" transform="translate(-62 160.7) rotate(-45)"/><rect class="cls-1" x="130.6" y="55.4" width="1.2" height="225" transform="translate(-61.2 161) rotate(-45)"/><rect class="cls-1" x="131.5" y="54.6" width="1.2" height="225" transform="translate(-60.4 161.4) rotate(-45)"/><rect class="cls-1" x="132.3" y="53.7" width="1.2" height="225" transform="translate(-59.5 161.7) rotate(-45)"/><rect class="cls-1" x="133.1" y="52.9" width="1.2" height="225" transform="translate(-58.7 162.1) rotate(-45)"/><rect class="cls-1" x="133.9" y="52.1" width="1.2" height="225" transform="translate(-57.9 162.4) rotate(-45)"/><rect class="cls-1" x="134.8" y="51.3" width="1.2" height="225" transform="translate(-57.1 162.8) rotate(-45)"/><rect class="cls-1" x="135.6" y="50.4" width="1.2" height="225" transform="translate(-56.2 163.1) rotate(-45)"/><rect class="cls-1" x="136.4" y="49.6" width="1.2" height="225" transform="translate(-55.4 163.4) rotate(-45)"/><rect class="cls-1" x="137.2" y="48.8" width="1.2" height="225" transform="translate(-54.6 163.8) rotate(-45)"/><rect class="cls-1" x="138.1" y="47.9" width="1.2" height="225" transform="translate(-53.7 164.1) rotate(-45)"/><rect class="cls-1" x="138.9" y="47.1" width="1.2" height="225" transform="translate(-52.9 164.5) rotate(-45)"/><rect class="cls-1" x="139.7" y="46.3" width="1.2" height="225" transform="translate(-52.1 164.8) rotate(-45)"/><rect class="cls-1" x="140.6" y="45.5" width="1.2" height="225" transform="translate(-51.3 165.2) rotate(-45)"/><rect class="cls-1" x="141.4" y="44.6" width="1.2" height="225" transform="translate(-50.4 165.5) rotate(-45)"/><rect class="cls-1" x="142.2" y="43.8" width="1.2" height="225" transform="translate(-49.6 165.8) rotate(-45)"/><rect class="cls-1" x="143" y="43" width="1.2" height="225" transform="translate(-48.8 166.2) rotate(-45)"/><rect class="cls-1" x="143.9" y="42.2" width="1.2" height="225" transform="translate(-48 166.5) rotate(-45)"/><rect class="cls-1" x="144.7" y="41.3" width="1.2" height="225" transform="translate(-47.1 166.9) rotate(-45)"/><rect class="cls-1" x="145.5" y="40.5" width="1.2" height="225" transform="translate(-46.3 167.2) rotate(-45)"/><rect class="cls-1" x="146.4" y="39.7" width="1.2" height="225" transform="translate(-45.5 167.6) rotate(-45)"/><rect class="cls-1" x="147.2" y="38.8" width="1.2" height="225" transform="translate(-44.6 167.9) rotate(-45)"/><rect class="cls-1" x="148" y="38" width="1.2" height="225" transform="translate(-43.8 168.2) rotate(-45)"/><rect class="cls-1" x="148.8" y="37.2" width="1.2" height="225" transform="translate(-43 168.6) rotate(-45)"/><rect class="cls-1" x="149.7" y="36.4" width="1.2" height="225" transform="translate(-42.2 168.9) rotate(-45)"/><rect class="cls-1" x="150.5" y="35.5" width="1.2" height="225" transform="translate(-41.3 169.3) rotate(-45)"/><rect class="cls-1" x="151.3" y="34.7" width="1.2" height="225" transform="translate(-40.5 169.6) rotate(-45)"/><rect class="cls-1" x="152.1" y="33.9" width="1.2" height="225" transform="translate(-39.7 170) rotate(-45)"/><rect class="cls-1" x="153" y="33.1" width="1.2" height="225" transform="translate(-38.9 170.3) rotate(-45)"/><rect class="cls-1" x="153.8" y="32.2" width="1.2" height="225" transform="translate(-38 170.6) rotate(-45)"/><rect class="cls-1" x="154.6" y="31.4" width="1.2" height="225" transform="translate(-37.2 171) rotate(-45)"/><rect class="cls-1" x="155.5" y="30.6" width="1.2" height="225" transform="translate(-36.4 171.3) rotate(-45)"/><rect class="cls-1" x="156.3" y="29.7" width="1.2" height="225" transform="translate(-35.5 171.7) rotate(-45)"/><rect class="cls-1" x="157.1" y="28.9" width="1.2" height="225" transform="translate(-34.7 172) rotate(-45)"/><rect class="cls-1" x="157.9" y="28.1" width="1.2" height="225" transform="translate(-33.9 172.4) rotate(-45)"/><rect class="cls-1" x="158.8" y="27.3" width="1.2" height="225" transform="translate(-33.1 172.7) rotate(-45)"/><rect class="cls-1" x="159.6" y="26.4" width="1.2" height="225" transform="translate(-32.2 173) rotate(-45)"/><rect class="cls-1" x="160.4" y="25.6" width="1.2" height="225" transform="translate(-31.4 173.4) rotate(-45)"/><rect class="cls-1" x="161.2" y="24.8" width="1.2" height="225" transform="translate(-30.6 173.7) rotate(-45)"/><rect class="cls-1" x="162.1" y="23.9" width="1.2" height="225" transform="translate(-29.7 174.1) rotate(-45)"/><rect class="cls-1" x="162.9" y="23.1" width="1.2" height="225" transform="translate(-28.9 174.4) rotate(-45)"/><rect class="cls-1" x="163.7" y="22.3" width="1.2" height="225" transform="translate(-28.1 174.8) rotate(-45)"/><rect class="cls-1" x="164.6" y="21.5" width="1.2" height="225" transform="translate(-27.3 175.1) rotate(-45)"/><rect class="cls-1" x="165.4" y="20.6" width="1.2" height="225" transform="translate(-26.4 175.4) rotate(-45)"/><rect class="cls-1" x="166.2" y="19.8" width="1.2" height="225" transform="translate(-25.6 175.8) rotate(-45)"/><rect class="cls-1" x="167" y="19" width="1.2" height="225" transform="translate(-24.8 176.1) rotate(-45)"/><rect class="cls-1" x="167.9" y="18.2" width="1.2" height="225" transform="translate(-24 176.5) rotate(-45)"/><rect class="cls-1" x="168.7" y="17.3" width="1.2" height="225" transform="translate(-23.1 176.8) rotate(-45)"/><rect class="cls-1" x="169.5" y="16.5" width="1.2" height="225" transform="translate(-22.3 177.2) rotate(-45)"/><rect class="cls-1" x="170.3" y="15.7" width="1.2" height="225" transform="translate(-21.5 177.5) rotate(-45)"/><rect class="cls-1" x="171.2" y="14.8" width="1.2" height="225" transform="translate(-20.6 177.8) rotate(-45)"/><rect class="cls-1" x="172" y="14" width="1.2" height="225" transform="translate(-19.8 178.2) rotate(-45)"/><rect class="cls-1" x="172.8" y="13.2" width="1.2" height="225" transform="translate(-19 178.5) rotate(-45)"/><rect class="cls-1" x="173.7" y="12.4" width="1.2" height="225" transform="translate(-18.2 178.9) rotate(-45)"/><rect class="cls-1" x="174.5" y="11.5" width="1.2" height="225" transform="translate(-17.3 179.2) rotate(-45)"/><rect class="cls-1" x="175.3" y="10.7" width="1.2" height="225" transform="translate(-16.5 179.6) rotate(-45)"/><rect class="cls-1" x="176.1" y="9.9" width="1.2" height="225" transform="translate(-15.7 179.9) rotate(-45)"/><rect class="cls-1" x="177" y="9.1" width="1.2" height="225" transform="translate(-14.9 180.2) rotate(-45)"/><rect class="cls-1" x="177.8" y="8.2" width="1.2" height="225" transform="translate(-14 180.6) rotate(-45)"/><rect class="cls-1" x="178.6" y="7.4" width="1.2" height="225" transform="translate(-13.2 180.9) rotate(-45)"/><rect class="cls-1" x="179.5" y="6.6" width="1.2" height="225" transform="translate(-12.4 181.3) rotate(-45)"/><rect class="cls-1" x="180.3" y="5.7" width="1.2" height="225" transform="translate(-11.5 181.6) rotate(-45)"/><rect class="cls-1" x="181.1" y="4.9" width="1.2" height="225" transform="translate(-10.7 182) rotate(-45)"/><rect class="cls-1" x="181.9" y="4.1" width="1.2" height="225" transform="translate(-9.9 182.3) rotate(-45)"/><rect class="cls-1" x="182.8" y="3.3" width="1.2" height="225" transform="translate(-9.1 182.6) rotate(-45)"/><rect class="cls-1" x="183.6" y="2.4" width="1.2" height="225" transform="translate(-8.2 183) rotate(-45)"/><rect class="cls-1" x="184.4" y="1.6" width="1.2" height="225" transform="translate(-7.4 183.3) rotate(-45)"/><rect class="cls-1" x="185.2" y="0.8" width="1.2" height="225" transform="translate(-6.6 183.7) rotate(-45)"/><rect class="cls-1" x="186.1" y="-0.1" width="1.2" height="225" transform="translate(-5.8 184) rotate(-45)"/><rect class="cls-1" x="186.9" y="-0.9" width="1.2" height="225" transform="translate(-4.9 184.4) rotate(-45)"/><rect class="cls-1" x="187.7" y="-1.7" width="1.2" height="225" transform="translate(-4.1 184.7) rotate(-45)"/><rect class="cls-1" x="188.6" y="-2.5" width="1.2" height="225" transform="translate(-3.3 185) rotate(-45)"/><rect class="cls-1" x="189.4" y="-3.4" width="1.2" height="225" transform="translate(-2.4 185.4) rotate(-45)"/><rect class="cls-1" x="190.2" y="-4.2" width="1.2" height="225" transform="translate(-1.6 185.7) rotate(-45)"/><rect class="cls-1" x="191" y="-5" width="1.2" height="225" transform="translate(-0.8 186.1) rotate(-45)"/><rect class="cls-1" x="191.9" y="-5.8" width="1.2" height="225" transform="translate(0 186.4) rotate(-45)"/><rect class="cls-1" x="192.7" y="-6.7" width="1.2" height="225" transform="translate(0.9 186.8) rotate(-45)"/><rect class="cls-1" x="193.5" y="-7.5" width="1.2" height="225" transform="translate(1.7 187.1) rotate(-45)"/><rect class="cls-1" x="194.3" y="-8.3" width="1.2" height="225" transform="translate(2.5 187.4) rotate(-45)"/><rect class="cls-1" x="195.2" y="-9.2" width="1.2" height="225" transform="translate(3.4 187.8) rotate(-45)"/><rect class="cls-1" x="196" y="-10" width="1.2" height="225" transform="translate(4.2 188.1) rotate(-45)"/><rect class="cls-1" x="196.8" y="-10.8" width="1.2" height="225" transform="translate(5 188.5) rotate(-45)"/><rect class="cls-1" x="197.7" y="-11.6" width="1.2" height="225" transform="translate(5.8 188.8) rotate(-45)"/><rect class="cls-1" x="198.5" y="-12.5" width="1.2" height="225" transform="translate(6.7 189.2) rotate(-45)"/><rect class="cls-1" x="199.3" y="-13.3" width="1.2" height="225" transform="translate(7.5 189.5) rotate(-45)"/><rect class="cls-1" x="200.3" y="-13.7" height="225" transform="translate(7.9 189.7) rotate(-45)"/><rect class="cls-1" x="200.3" y="-13.7" height="225" transform="translate(7.9 189.7) rotate(-45)"/><rect class="cls-1" x="200.4" y="-13.8" height="225" transform="translate(8 189.7) rotate(-45)"/><rect class="cls-1" x="200.4" y="-13.8" height="225" transform="translate(8 189.7) rotate(-45)"/><rect class="cls-1" x="200.4" y="-13.8" height="225" transform="translate(8 189.7) rotate(-45)"/><rect class="cls-1" x="200.4" y="-13.8" height="225" transform="translate(8 189.7) rotate(-45)"/><rect class="cls-1" x="200.4" y="-13.8" height="225" transform="translate(8 189.7) rotate(-45)"/><path class="cls-1" d="M280,178.2,120.9,19.1Z" transform="translate(19.1 19.1)"/></g><g class="cls-4"><path class="cls-5" d="M0,140,140,280Z" transform="translate(19.1 19.1)"/><rect class="cls-5" x="69.8" y="110.5" width="1.3" height="198" transform="translate(-108.4 130.3) rotate(-45)"/><rect class="cls-6" x="70.7" y="109.6" width="1.3" height="198" transform="translate(-107.5 130.7) rotate(-45)"/><rect class="cls-7" x="71.7" y="108.7" width="1.3" height="198" transform="translate(-106.6 131.1) rotate(-45)"/><rect class="cls-8" x="72.6" y="107.7" width="1.3" height="198" transform="translate(-105.6 131.5) rotate(-45)"/><rect class="cls-9" x="73.6" y="106.8" width="1.3" height="198" transform="translate(-104.7 131.9) rotate(-45)"/><rect class="cls-10" x="74.5" y="105.8" width="1.3" height="198" transform="translate(-103.7 132.2) rotate(-45)"/><rect class="cls-11" x="75.5" y="104.9" width="1.3" height="198" transform="translate(-102.8 132.6) rotate(-45)"/><rect class="cls-12" x="76.4" y="104" width="1.3" height="198" transform="translate(-101.9 133) rotate(-45)"/><rect class="cls-13" x="77.3" y="103" width="1.3" height="198" transform="translate(-100.9 133.4) rotate(-45)"/><rect class="cls-14" x="78.3" y="102.1" width="1.3" height="198" transform="translate(-100 133.8) rotate(-45)"/><rect class="cls-15" x="79.2" y="101.1" width="1.3" height="198" transform="translate(-99 134.2) rotate(-45)"/><rect class="cls-16" x="80.2" y="100.2" width="1.3" height="198" transform="translate(-98.1 134.6) rotate(-45)"/><rect class="cls-17" x="81.1" y="99.3" width="1.3" height="198" transform="translate(-97.1 135) rotate(-45)"/><rect class="cls-18" x="82" y="98.3" width="1.3" height="198" transform="translate(-96.2 135.4) rotate(-45)"/><rect class="cls-19" x="83" y="97.4" width="1.3" height="198" transform="translate(-95.3 135.8) rotate(-45)"/><rect class="cls-20" x="83.9" y="96.4" width="1.3" height="198" transform="translate(-94.3 136.1) rotate(-45)"/><rect class="cls-21" x="84.9" y="95.5" width="1.3" height="198" transform="translate(-93.4 136.5) rotate(-45)"/><rect class="cls-22" x="85.8" y="94.6" width="1.3" height="198" transform="translate(-92.4 136.9) rotate(-45)"/><rect class="cls-23" x="86.7" y="93.6" width="1.3" height="198" transform="translate(-91.5 137.3) rotate(-45)"/><rect class="cls-24" x="87.7" y="92.7" width="1.3" height="198" transform="translate(-90.6 137.7) rotate(-45)"/><rect class="cls-25" x="88.6" y="91.7" width="1.3" height="198" transform="translate(-89.6 138.1) rotate(-45)"/><rect class="cls-26" x="89.6" y="90.8" width="1.3" height="198" transform="translate(-88.7 138.5) rotate(-45)"/><rect class="cls-27" x="90.5" y="89.9" width="1.3" height="198" transform="translate(-87.7 138.9) rotate(-45)"/><rect class="cls-28" x="91.4" y="88.9" width="1.3" height="198" transform="translate(-86.8 139.3) rotate(-45)"/><rect class="cls-29" x="92.4" y="88" width="1.3" height="198" transform="translate(-85.9 139.6) rotate(-45)"/><rect class="cls-30" x="93.3" y="87" width="1.3" height="198" transform="translate(-84.9 140) rotate(-45)"/><rect class="cls-31" x="94.3" y="86.1" width="1.3" height="198" transform="translate(-84 140.4) rotate(-45)"/><rect class="cls-32" x="95.2" y="85.2" width="1.3" height="198" transform="translate(-83 140.8) rotate(-45)"/><rect class="cls-33" x="96.1" y="84.2" width="1.3" height="198" transform="translate(-82.1 141.2) rotate(-45)"/><rect class="cls-34" x="97.1" y="83.3" width="1.3" height="198" transform="translate(-81.2 141.6) rotate(-45)"/><rect class="cls-35" x="98" y="82.3" width="1.3" height="198" transform="translate(-80.2 142) rotate(-45)"/><rect class="cls-36" x="99" y="81.4" width="1.3" height="198" transform="translate(-79.3 142.4) rotate(-45)"/><rect class="cls-37" x="99.9" y="80.4" width="1.3" height="198" transform="translate(-78.3 142.8) rotate(-45)"/><rect class="cls-38" x="100.8" y="79.5" width="1.3" height="198" transform="translate(-77.4 143.2) rotate(-45)"/><rect class="cls-39" x="101.8" y="78.6" width="1.3" height="198" transform="translate(-76.5 143.5) rotate(-45)"/><rect class="cls-40" x="102.7" y="77.6" width="1.3" height="198" transform="translate(-75.5 143.9) rotate(-45)"/><rect class="cls-41" x="103.7" y="76.7" width="1.3" height="198" transform="translate(-74.6 144.3) rotate(-45)"/><rect class="cls-42" x="104.6" y="75.7" width="1.3" height="198" transform="translate(-73.6 144.7) rotate(-45)"/><rect class="cls-43" x="105.5" y="74.8" width="1.3" height="198" transform="translate(-72.7 145.1) rotate(-45)"/><rect class="cls-44" x="106.5" y="73.9" width="1.3" height="198" transform="translate(-71.8 145.5) rotate(-45)"/><rect class="cls-45" x="107.4" y="72.9" width="1.3" height="198" transform="translate(-70.8 145.9) rotate(-45)"/><rect class="cls-46" x="108.4" y="72" width="1.3" height="198" transform="translate(-69.9 146.3) rotate(-45)"/><rect class="cls-47" x="109.3" y="71" width="1.3" height="198" transform="translate(-68.9 146.7) rotate(-45)"/><rect class="cls-48" x="110.2" y="70.1" width="1.3" height="198" transform="translate(-68 147) rotate(-45)"/><rect class="cls-49" x="111.2" y="69.2" width="1.3" height="198" transform="translate(-67.1 147.4) rotate(-45)"/><rect class="cls-50" x="112.1" y="68.2" width="1.3" height="198" transform="translate(-66.1 147.8) rotate(-45)"/><rect class="cls-51" x="113.1" y="67.3" width="1.3" height="198" transform="translate(-65.2 148.2) rotate(-45)"/><rect class="cls-52" x="114" y="66.3" width="1.3" height="198" transform="translate(-64.2 148.6) rotate(-45)"/><rect class="cls-53" x="114.9" y="65.4" width="1.3" height="198" transform="translate(-63.3 149) rotate(-45)"/><rect class="cls-54" x="115.9" y="64.5" width="1.3" height="198" transform="translate(-62.4 149.4) rotate(-45)"/><rect class="cls-55" x="116.8" y="63.5" width="1.3" height="198" transform="translate(-61.4 149.8) rotate(-45)"/><rect class="cls-56" x="117.8" y="62.6" width="1.3" height="198" transform="translate(-60.5 150.2) rotate(-45)"/><rect class="cls-57" x="118.7" y="61.6" width="1.3" height="198" transform="translate(-59.5 150.6) rotate(-45)"/><rect class="cls-58" x="119.6" y="60.7" width="1.3" height="198" transform="translate(-58.6 150.9) rotate(-45)"/><rect class="cls-59" x="120.6" y="59.8" width="1.3" height="198" transform="translate(-57.7 151.3) rotate(-45)"/><rect class="cls-60" x="121.5" y="58.8" width="1.3" height="198" transform="translate(-56.7 151.7) rotate(-45)"/><rect class="cls-61" x="122.5" y="57.9" width="1.3" height="198" transform="translate(-55.8 152.1) rotate(-45)"/><rect class="cls-62" x="123.4" y="56.9" width="1.3" height="198" transform="translate(-54.8 152.5) rotate(-45)"/><rect class="cls-63" x="124.4" y="56" width="1.3" height="198" transform="translate(-53.9 152.9) rotate(-45)"/><rect class="cls-64" x="125.3" y="55.1" width="1.3" height="198" transform="translate(-53 153.3) rotate(-45)"/><rect class="cls-65" x="126.2" y="54.1" width="1.3" height="198" transform="translate(-52 153.7) rotate(-45)"/><rect class="cls-66" x="127.2" y="53.2" width="1.3" height="198" transform="translate(-51.1 154.1) rotate(-45)"/><rect class="cls-67" x="128.1" y="52.2" width="1.3" height="198" transform="translate(-50.1 154.4) rotate(-45)"/><rect class="cls-68" x="129.1" y="51.3" width="1.3" height="198" transform="translate(-49.2 154.8) rotate(-45)"/><rect class="cls-69" x="130" y="50.4" width="1.3" height="198" transform="translate(-48.2 155.2) rotate(-45)"/><rect class="cls-70" x="130.9" y="49.4" width="1.3" height="198" transform="translate(-47.3 155.6) rotate(-45)"/><rect class="cls-71" x="131.9" y="48.5" width="1.3" height="198" transform="translate(-46.4 156) rotate(-45)"/><rect class="cls-72" x="132.8" y="47.5" width="1.3" height="198" transform="translate(-45.4 156.4) rotate(-45)"/><rect class="cls-73" x="133.8" y="46.6" width="1.3" height="198" transform="translate(-44.5 156.8) rotate(-45)"/><rect class="cls-74" x="134.7" y="45.7" width="1.3" height="198" transform="translate(-43.5 157.2) rotate(-45)"/><rect class="cls-75" x="135.6" y="44.7" width="1.3" height="198" transform="translate(-42.6 157.6) rotate(-45)"/><rect class="cls-76" x="136.6" y="43.8" width="1.3" height="198" transform="translate(-41.7 158) rotate(-45)"/><rect class="cls-77" x="137.5" y="42.8" width="1.3" height="198" transform="translate(-40.7 158.3) rotate(-45)"/><rect class="cls-78" x="138.5" y="41.9" width="1.3" height="198" transform="translate(-39.8 158.7) rotate(-45)"/><rect class="cls-79" x="139.4" y="41" width="1.3" height="198" transform="translate(-38.8 159.1) rotate(-45)"/><rect class="cls-80" x="140.3" y="40" width="1.3" height="198" transform="translate(-37.9 159.5) rotate(-45)"/><rect class="cls-81" x="141.3" y="39.1" width="1.3" height="198" transform="translate(-37 159.9) rotate(-45)"/><rect class="cls-82" x="142.2" y="38.1" width="1.3" height="198" transform="translate(-36 160.3) rotate(-45)"/><rect class="cls-83" x="143.2" y="37.2" width="1.3" height="198" transform="translate(-35.1 160.7) rotate(-45)"/><rect class="cls-84" x="144.1" y="36.3" width="1.3" height="198" transform="translate(-34.1 161.1) rotate(-45)"/><rect class="cls-85" x="145" y="35.3" width="1.3" height="198" transform="translate(-33.2 161.5) rotate(-45)"/><rect class="cls-86" x="146" y="34.4" width="1.3" height="198" transform="translate(-32.3 161.8) rotate(-45)"/><rect class="cls-87" x="146.9" y="33.4" width="1.3" height="198" transform="translate(-31.3 162.2) rotate(-45)"/><rect class="cls-88" x="147.9" y="32.5" width="1.3" height="198" transform="translate(-30.4 162.6) rotate(-45)"/><rect class="cls-89" x="148.8" y="31.5" width="1.3" height="198" transform="translate(-29.4 163) rotate(-45)"/><rect class="cls-90" x="149.7" y="30.6" width="1.3" height="198" transform="translate(-28.5 163.4) rotate(-45)"/><rect class="cls-91" x="150.7" y="29.7" width="1.3" height="198" transform="translate(-27.6 163.8) rotate(-45)"/><rect class="cls-92" x="151.6" y="28.7" width="1.3" height="198" transform="translate(-26.6 164.2) rotate(-45)"/><rect class="cls-93" x="152.6" y="27.8" width="1.3" height="198" transform="translate(-25.7 164.6) rotate(-45)"/><rect class="cls-94" x="153.5" y="26.8" width="1.3" height="198" transform="translate(-24.7 165) rotate(-45)"/><rect class="cls-95" x="154.4" y="25.9" width="1.3" height="198" transform="translate(-23.8 165.4) rotate(-45)"/><rect class="cls-96" x="155.4" y="25" width="1.3" height="198" transform="translate(-22.9 165.7) rotate(-45)"/><rect class="cls-97" x="156.3" y="24" width="1.3" height="198" transform="translate(-21.9 166.1) rotate(-45)"/><rect class="cls-98" x="157.3" y="23.1" width="1.3" height="198" transform="translate(-21 166.5) rotate(-45)"/><rect class="cls-99" x="158.2" y="22.1" width="1.3" height="198" transform="translate(-20 166.9) rotate(-45)"/><rect class="cls-100" x="159.1" y="21.2" width="1.3" height="198" transform="translate(-19.1 167.3) rotate(-45)"/><rect class="cls-101" x="160.1" y="20.3" width="1.3" height="198" transform="translate(-18.2 167.7) rotate(-45)"/><rect class="cls-102" x="161" y="19.3" width="1.3" height="198" transform="translate(-17.2 168.1) rotate(-45)"/><rect class="cls-103" x="162" y="18.4" width="1.3" height="198" transform="translate(-16.3 168.5) rotate(-45)"/><rect class="cls-104" x="162.9" y="17.4" width="1.3" height="198" transform="translate(-15.3 168.9) rotate(-45)"/><rect class="cls-105" x="163.8" y="16.5" width="1.3" height="198" transform="translate(-14.4 169.2) rotate(-45)"/><rect class="cls-106" x="164.8" y="15.6" width="1.3" height="198" transform="translate(-13.5 169.6) rotate(-45)"/><rect class="cls-107" x="165.7" y="14.6" width="1.3" height="198" transform="translate(-12.5 170) rotate(-45)"/><rect class="cls-108" x="166.7" y="13.7" width="1.3" height="198" transform="translate(-11.6 170.4) rotate(-45)"/><rect class="cls-108" x="167.6" y="12.7" width="1.3" height="198" transform="translate(-10.6 170.8) rotate(-45)"/><rect class="cls-109" x="168.5" y="11.8" width="1.3" height="198" transform="translate(-9.7 171.2) rotate(-45)"/><rect class="cls-110" x="169.5" y="10.9" width="1.3" height="198" transform="translate(-8.8 171.6) rotate(-45)"/><rect class="cls-111" x="170.4" y="9.9" width="1.3" height="198" transform="translate(-7.8 172) rotate(-45)"/><rect class="cls-112" x="171.4" y="9" width="1.3" height="198" transform="translate(-6.9 172.4) rotate(-45)"/><rect class="cls-112" x="172.3" y="8" width="1.3" height="198" transform="translate(-5.9 172.8) rotate(-45)"/><rect class="cls-113" x="173.3" y="7.1" width="1.3" height="198" transform="translate(-5 173.1) rotate(-45)"/><rect class="cls-114" x="174.2" y="6.2" width="1.3" height="198" transform="translate(-4.1 173.5) rotate(-45)"/><rect class="cls-115" x="175.1" y="5.2" width="1.3" height="198" transform="translate(-3.1 173.9) rotate(-45)"/><rect class="cls-116" x="176.1" y="4.3" width="1.3" height="198" transform="translate(-2.2 174.3) rotate(-45)"/><rect class="cls-117" x="177" y="3.3" width="1.3" height="198" transform="translate(-1.2 174.7) rotate(-45)"/><rect class="cls-118" x="178" y="2.4" width="1.3" height="198" transform="translate(-0.3 175.1) rotate(-45)"/><rect class="cls-119" x="178.9" y="1.5" width="1.3" height="198" transform="translate(0.7 175.5) rotate(-45)"/><rect class="cls-120" x="179.8" y="0.5" width="1.3" height="198" transform="translate(1.6 175.9) rotate(-45)"/><rect class="cls-121" x="180.8" y="-0.4" width="1.3" height="198" transform="translate(2.5 176.3) rotate(-45)"/><rect class="cls-122" x="181.7" y="-1.4" width="1.3" height="198" transform="translate(3.5 176.7) rotate(-45)"/><rect class="cls-123" x="182.7" y="-2.3" width="1.3" height="198" transform="translate(4.4 177) rotate(-45)"/><rect class="cls-124" x="183.6" y="-3.2" width="1.3" height="198" transform="translate(5.4 177.4) rotate(-45)"/><rect class="cls-125" x="184.5" y="-4.2" width="1.3" height="198" transform="translate(6.3 177.8) rotate(-45)"/><rect class="cls-126" x="185.5" y="-5.1" width="1.3" height="198" transform="translate(7.2 178.2) rotate(-45)"/><rect class="cls-127" x="186.4" y="-6.1" width="1.3" height="198" transform="translate(8.2 178.6) rotate(-45)"/><rect class="cls-128" x="187.4" y="-7" width="1.3" height="198" transform="translate(9.1 179) rotate(-45)"/><rect class="cls-129" x="188.3" y="-7.9" width="1.3" height="198" transform="translate(10.1 179.4) rotate(-45)"/><rect class="cls-129" x="189.2" y="-8.9" width="1.3" height="198" transform="translate(11 179.8) rotate(-45)"/><rect class="cls-130" x="190.2" y="-9.8" width="1.3" height="198" transform="translate(11.9 180.2) rotate(-45)"/><rect class="cls-131" x="191.1" y="-10.8" width="1.3" height="198" transform="translate(12.9 180.5) rotate(-45)"/><rect class="cls-131" x="192.1" y="-11.7" width="1.3" height="198" transform="translate(13.8 180.9) rotate(-45)"/><rect class="cls-132" x="193" y="-12.6" width="1.3" height="198" transform="translate(14.8 181.3) rotate(-45)"/><rect class="cls-133" x="193.9" y="-13.6" width="1.3" height="198" transform="translate(15.7 181.7) rotate(-45)"/><rect class="cls-133" x="194.9" y="-14.5" width="1.3" height="198" transform="translate(16.6 182.1) rotate(-45)"/><rect class="cls-134" x="195.8" y="-15.5" width="1.3" height="198" transform="translate(17.6 182.5) rotate(-45)"/><rect class="cls-135" x="196.8" y="-16.4" width="1.3" height="198" transform="translate(18.5 182.9) rotate(-45)"/><rect class="cls-135" x="197.7" y="-17.4" width="1.3" height="198" transform="translate(19.5 183.3) rotate(-45)"/><rect class="cls-136" x="198.6" y="-18.3" width="1.3" height="198" transform="translate(20.4 183.7) rotate(-45)"/><rect class="cls-137" x="199.6" y="-19.2" width="1.3" height="198" transform="translate(21.3 184.1) rotate(-45)"/><rect class="cls-138" x="200.5" y="-20.2" width="1.3" height="198" transform="translate(22.3 184.4) rotate(-45)"/><rect class="cls-138" x="201.5" y="-21.1" width="1.3" height="198" transform="translate(23.2 184.8) rotate(-45)"/><rect class="cls-139" x="202.4" y="-22.1" width="1.3" height="198" transform="translate(24.2 185.2) rotate(-45)"/><rect class="cls-140" x="203.3" y="-23" width="1.3" height="198" transform="translate(25.1 185.6) rotate(-45)"/><rect class="cls-141" x="204.3" y="-23.9" width="1.3" height="198" transform="translate(26 186) rotate(-45)"/><rect class="cls-141" x="205.2" y="-24.9" width="1.3" height="198" transform="translate(27 186.4) rotate(-45)"/><rect class="cls-141" x="206.2" y="-25.8" width="1.3" height="198" transform="translate(27.9 186.8) rotate(-45)"/><rect class="cls-142" x="207.1" y="-26.8" width="1.3" height="198" transform="translate(28.9 187.2) rotate(-45)"/><rect class="cls-143" x="208" y="-27.7" width="1.3" height="198" transform="translate(29.8 187.6) rotate(-45)"/><rect class="cls-144" x="209" y="-28.6" width="1.3" height="198" transform="translate(30.7 187.9) rotate(-45)"/><rect class="cls-144" x="209.9" y="-29.6" width="1.3" height="198" transform="translate(31.7 188.3) rotate(-45)"/><rect class="cls-144" x="210.9" y="-30.5" width="1.3" height="198" transform="translate(32.6 188.7) rotate(-45)"/><rect class="cls-145" x="211.8" y="-31.5" width="1.3" height="198" transform="translate(33.6 189.1) rotate(-45)"/><rect class="cls-145" x="212.7" y="-32.4" width="1.3" height="198" transform="translate(34.5 189.5) rotate(-45)"/><rect class="cls-145" x="213.7" y="-33.3" width="1.3" height="198" transform="translate(35.4 189.9) rotate(-45)"/><rect class="cls-145" x="214.6" y="-34.3" width="1.3" height="198" transform="translate(36.4 190.3) rotate(-45)"/><rect class="cls-146" x="215.6" y="-35.2" width="1.3" height="198" transform="translate(37.3 190.7) rotate(-45)"/><rect class="cls-146" x="216.5" y="-36.2" width="1.3" height="198" transform="translate(38.3 191.1) rotate(-45)"/><rect class="cls-146" x="217.4" y="-37.1" width="1.3" height="198" transform="translate(39.2 191.5) rotate(-45)"/><rect class="cls-146" x="218.4" y="-38" width="1.3" height="198" transform="translate(40.1 191.8) rotate(-45)"/><rect class="cls-146" x="219.3" y="-39" width="1.3" height="198" transform="translate(41.1 192.2) rotate(-45)"/><rect class="cls-146" x="220.3" y="-39.9" width="1.3" height="198" transform="translate(42 192.6) rotate(-45)"/><rect class="cls-146" x="221.2" y="-40.9" width="1.3" height="198" transform="translate(43 193) rotate(-45)"/><rect class="cls-146" x="222.2" y="-41.8" width="1.3" height="198" transform="translate(43.9 193.4) rotate(-45)"/><rect class="cls-146" x="223.1" y="-42.7" width="1.3" height="198" transform="translate(44.8 193.8) rotate(-45)"/><rect class="cls-147" x="224" y="-43.7" width="1.3" height="198" transform="translate(45.8 194.2) rotate(-45)"/><rect class="cls-147" x="225" y="-44.6" width="1.3" height="198" transform="translate(46.7 194.6) rotate(-45)"/><rect class="cls-147" x="225.9" y="-45.6" width="1.3" height="198" transform="translate(47.7 195) rotate(-45)"/><rect class="cls-147" x="226.9" y="-46.5" width="1.3" height="198" transform="translate(48.6 195.3) rotate(-45)"/><rect class="cls-147" x="227.8" y="-47.4" width="1.3" height="198" transform="translate(49.6 195.7) rotate(-45)"/><rect class="cls-147" x="228.9" y="-47.9" height="198" transform="translate(50 195.9) rotate(-45)"/><rect class="cls-134" x="228.9" y="-48" height="198" transform="translate(50.1 195.9) rotate(-45)"/><rect class="cls-130" x="229" y="-48" height="198" transform="translate(50.1 196) rotate(-45)"/><rect class="cls-129" x="229" y="-48" height="198" transform="translate(50.1 196) rotate(-45)"/><rect class="cls-148" x="229" y="-48" height="198" transform="translate(50.1 196) rotate(-45)"/><rect class="cls-148" x="229" y="-48.1" height="198" transform="translate(50.2 196) rotate(-45)"/><rect class="cls-148" x="229.1" y="-48.1" height="198" transform="translate(50.2 196) rotate(-45)"/><path class="cls-148" d="M299.1,120.9l-140-140Z" transform="translate(19.1 19.1)"/></g><g class="cls-149"><path class="cls-5" d="M318.2,178.2l-140-140Z" transform="translate(19.1 19.1)"/><rect class="cls-5" x="247.1" y="9.7" width="1.3" height="198" transform="translate(14.8 226.1) rotate(-45)"/><rect class="cls-6" x="246.1" y="10.6" width="1.3" height="198" transform="translate(13.9 225.7) rotate(-45)"/><rect class="cls-7" x="245.2" y="11.5" width="1.3" height="198" transform="translate(12.9 225.3) rotate(-45)"/><rect class="cls-8" x="244.2" y="12.5" width="1.3" height="198" transform="translate(12 224.9) rotate(-45)"/><rect class="cls-9" x="243.3" y="13.4" width="1.3" height="198" transform="translate(11.1 224.5) rotate(-45)"/><rect class="cls-10" x="242.4" y="14.4" width="1.3" height="198" transform="translate(10.1 224.1) rotate(-45)"/><rect class="cls-11" x="241.4" y="15.3" width="1.3" height="198" transform="translate(9.2 223.7) rotate(-45)"/><rect class="cls-12" x="240.5" y="16.2" width="1.3" height="198" transform="translate(8.2 223.4) rotate(-45)"/><rect class="cls-13" x="239.5" y="17.2" width="1.3" height="198" transform="translate(7.3 223) rotate(-45)"/><rect class="cls-14" x="238.6" y="18.1" width="1.3" height="198" transform="translate(6.4 222.6) rotate(-45)"/><rect class="cls-15" x="237.7" y="19.1" width="1.3" height="198" transform="translate(5.4 222.2) rotate(-45)"/><rect class="cls-16" x="236.7" y="20" width="1.3" height="198" transform="translate(4.5 221.8) rotate(-45)"/><rect class="cls-17" x="235.8" y="20.9" width="1.3" height="198" transform="translate(3.5 221.4) rotate(-45)"/><rect class="cls-18" x="234.8" y="21.9" width="1.3" height="198" transform="translate(2.6 221) rotate(-45)"/><rect class="cls-19" x="233.9" y="22.8" width="1.3" height="198" transform="translate(1.7 220.6) rotate(-45)"/><rect class="cls-20" x="233" y="23.8" width="1.3" height="198" transform="translate(0.7 220.2) rotate(-45)"/><rect class="cls-21" x="232" y="24.7" width="1.3" height="198" transform="translate(-0.2 219.9) rotate(-45)"/><rect class="cls-22" x="231.1" y="25.6" width="1.3" height="198" transform="translate(-1.2 219.5) rotate(-45)"/><rect class="cls-23" x="230.1" y="26.6" width="1.3" height="198" transform="translate(-2.1 219.1) rotate(-45)"/><rect class="cls-24" x="229.2" y="27.5" width="1.3" height="198" transform="translate(-3.1 218.7) rotate(-45)"/><rect class="cls-25" x="228.3" y="28.5" width="1.3" height="198" transform="translate(-4 218.3) rotate(-45)"/><rect class="cls-26" x="227.3" y="29.4" width="1.3" height="198" transform="translate(-4.9 217.9) rotate(-45)"/><rect class="cls-27" x="226.4" y="30.3" width="1.3" height="198" transform="translate(-5.9 217.5) rotate(-45)"/><rect class="cls-28" x="225.4" y="31.3" width="1.3" height="198" transform="translate(-6.8 217.1) rotate(-45)"/><rect class="cls-29" x="224.5" y="32.2" width="1.3" height="198" transform="translate(-7.8 216.7) rotate(-45)"/><rect class="cls-30" x="223.5" y="33.2" width="1.3" height="198" transform="translate(-8.7 216.3) rotate(-45)"/><rect class="cls-31" x="222.6" y="34.1" width="1.3" height="198" transform="translate(-9.6 216) rotate(-45)"/><rect class="cls-32" x="221.7" y="35" width="1.3" height="198" transform="translate(-10.6 215.6) rotate(-45)"/><rect class="cls-33" x="220.7" y="36" width="1.3" height="198" transform="translate(-11.5 215.2) rotate(-45)"/><rect class="cls-34" x="219.8" y="36.9" width="1.3" height="198" transform="translate(-12.5 214.8) rotate(-45)"/><rect class="cls-35" x="218.8" y="37.9" width="1.3" height="198" transform="translate(-13.4 214.4) rotate(-45)"/><rect class="cls-36" x="217.9" y="38.8" width="1.3" height="198" transform="translate(-14.3 214) rotate(-45)"/><rect class="cls-37" x="217" y="39.7" width="1.3" height="198" transform="translate(-15.3 213.6) rotate(-45)"/><rect class="cls-38" x="216" y="40.7" width="1.3" height="198" transform="translate(-16.2 213.2) rotate(-45)"/><rect class="cls-39" x="215.1" y="41.6" width="1.3" height="198" transform="translate(-17.2 212.8) rotate(-45)"/><rect class="cls-40" x="214.1" y="42.6" width="1.3" height="198" transform="translate(-18.1 212.5) rotate(-45)"/><rect class="cls-41" x="213.2" y="43.5" width="1.3" height="198" transform="translate(-19 212.1) rotate(-45)"/><rect class="cls-42" x="212.3" y="44.5" width="1.3" height="198" transform="translate(-20 211.7) rotate(-45)"/><rect class="cls-43" x="211.3" y="45.4" width="1.3" height="198" transform="translate(-20.9 211.3) rotate(-45)"/><rect class="cls-44" x="210.4" y="46.3" width="1.3" height="198" transform="translate(-21.9 210.9) rotate(-45)"/><rect class="cls-45" x="209.4" y="47.3" width="1.3" height="198" transform="translate(-22.8 210.5) rotate(-45)"/><rect class="cls-46" x="208.5" y="48.2" width="1.3" height="198" transform="translate(-23.7 210.1) rotate(-45)"/><rect class="cls-47" x="207.6" y="49.2" width="1.3" height="198" transform="translate(-24.7 209.7) rotate(-45)"/><rect class="cls-48" x="206.6" y="50.1" width="1.3" height="198" transform="translate(-25.6 209.3) rotate(-45)"/><rect class="cls-49" x="205.7" y="51" width="1.3" height="198" transform="translate(-26.6 208.9) rotate(-45)"/><rect class="cls-50" x="204.7" y="52" width="1.3" height="198" transform="translate(-27.5 208.6) rotate(-45)"/><rect class="cls-51" x="203.8" y="52.9" width="1.3" height="198" transform="translate(-28.4 208.2) rotate(-45)"/><rect class="cls-52" x="202.9" y="53.9" width="1.3" height="198" transform="translate(-29.4 207.8) rotate(-45)"/><rect class="cls-53" x="201.9" y="54.8" width="1.3" height="198" transform="translate(-30.3 207.4) rotate(-45)"/><rect class="cls-54" x="201" y="55.7" width="1.3" height="198" transform="translate(-31.3 207) rotate(-45)"/><rect class="cls-55" x="200" y="56.7" width="1.3" height="198" transform="translate(-32.2 206.6) rotate(-45)"/><rect class="cls-56" x="199.1" y="57.6" width="1.3" height="198" transform="translate(-33.1 206.2) rotate(-45)"/><rect class="cls-57" x="198.2" y="58.6" width="1.3" height="198" transform="translate(-34.1 205.8) rotate(-45)"/><rect class="cls-58" x="197.2" y="59.5" width="1.3" height="198" transform="translate(-35 205.4) rotate(-45)"/><rect class="cls-59" x="196.3" y="60.4" width="1.3" height="198" transform="translate(-36 205.1) rotate(-45)"/><rect class="cls-60" x="195.3" y="61.4" width="1.3" height="198" transform="translate(-36.9 204.7) rotate(-45)"/><rect class="cls-61" x="194.4" y="62.3" width="1.3" height="198" transform="translate(-37.8 204.3) rotate(-45)"/><rect class="cls-62" x="193.5" y="63.3" width="1.3" height="198" transform="translate(-38.8 203.9) rotate(-45)"/><rect class="cls-63" x="192.5" y="64.2" width="1.3" height="198" transform="translate(-39.7 203.5) rotate(-45)"/><rect class="cls-64" x="191.6" y="65.1" width="1.3" height="198" transform="translate(-40.7 203.1) rotate(-45)"/><rect class="cls-65" x="190.6" y="66.1" width="1.3" height="198" transform="translate(-41.6 202.7) rotate(-45)"/><rect class="cls-66" x="189.7" y="67" width="1.3" height="198" transform="translate(-42.5 202.3) rotate(-45)"/><rect class="cls-67" x="188.8" y="68" width="1.3" height="198" transform="translate(-43.5 201.9) rotate(-45)"/><rect class="cls-68" x="187.8" y="68.9" width="1.3" height="198" transform="translate(-44.4 201.5) rotate(-45)"/><rect class="cls-69" x="186.9" y="69.8" width="1.3" height="198" transform="translate(-45.4 201.2) rotate(-45)"/><rect class="cls-70" x="185.9" y="70.8" width="1.3" height="198" transform="translate(-46.3 200.8) rotate(-45)"/><rect class="cls-71" x="185" y="71.7" width="1.3" height="198" transform="translate(-47.2 200.4) rotate(-45)"/><rect class="cls-72" x="184.1" y="72.7" width="1.3" height="198" transform="translate(-48.2 200) rotate(-45)"/><rect class="cls-73" x="183.1" y="73.6" width="1.3" height="198" transform="translate(-49.1 199.6) rotate(-45)"/><rect class="cls-74" x="182.2" y="74.5" width="1.3" height="198" transform="translate(-50.1 199.2) rotate(-45)"/><rect class="cls-75" x="181.2" y="75.5" width="1.3" height="198" transform="translate(-51 198.8) rotate(-45)"/><rect class="cls-76" x="180.3" y="76.4" width="1.3" height="198" transform="translate(-52 198.4) rotate(-45)"/><rect class="cls-77" x="179.4" y="77.4" width="1.3" height="198" transform="translate(-52.9 198) rotate(-45)"/><rect class="cls-78" x="178.4" y="78.3" width="1.3" height="198" transform="translate(-53.8 197.6) rotate(-45)"/><rect class="cls-79" x="177.5" y="79.2" width="1.3" height="198" transform="translate(-54.8 197.3) rotate(-45)"/><rect class="cls-80" x="176.5" y="80.2" width="1.3" height="198" transform="translate(-55.7 196.9) rotate(-45)"/><rect class="cls-81" x="175.6" y="81.1" width="1.3" height="198" transform="translate(-56.7 196.5) rotate(-45)"/><rect class="cls-82" x="174.6" y="82.1" width="1.3" height="198" transform="translate(-57.6 196.1) rotate(-45)"/><rect class="cls-83" x="173.7" y="83" width="1.3" height="198" transform="translate(-58.5 195.7) rotate(-45)"/><rect class="cls-84" x="172.8" y="83.9" width="1.3" height="198" transform="translate(-59.5 195.3) rotate(-45)"/><rect class="cls-85" x="171.8" y="84.9" width="1.3" height="198" transform="translate(-60.4 194.9) rotate(-45)"/><rect class="cls-86" x="170.9" y="85.8" width="1.3" height="198" transform="translate(-61.4 194.5) rotate(-45)"/><rect class="cls-87" x="169.9" y="86.8" width="1.3" height="198" transform="translate(-62.3 194.1) rotate(-45)"/><rect class="cls-88" x="169" y="87.7" width="1.3" height="198" transform="translate(-63.2 193.8) rotate(-45)"/><rect class="cls-89" x="168.1" y="88.6" width="1.3" height="198" transform="translate(-64.2 193.4) rotate(-45)"/><rect class="cls-90" x="167.1" y="89.6" width="1.3" height="198" transform="translate(-65.1 193) rotate(-45)"/><rect class="cls-91" x="166.2" y="90.5" width="1.3" height="198" transform="translate(-66.1 192.6) rotate(-45)"/><rect class="cls-92" x="165.2" y="91.5" width="1.3" height="198" transform="translate(-67 192.2) rotate(-45)"/><rect class="cls-93" x="164.3" y="92.4" width="1.3" height="198" transform="translate(-67.9 191.8) rotate(-45)"/><rect class="cls-94" x="163.4" y="93.4" width="1.3" height="198" transform="translate(-68.9 191.4) rotate(-45)"/><rect class="cls-95" x="162.4" y="94.3" width="1.3" height="198" transform="translate(-69.8 191) rotate(-45)"/><rect class="cls-96" x="161.5" y="95.2" width="1.3" height="198" transform="translate(-70.8 190.6) rotate(-45)"/><rect class="cls-97" x="160.5" y="96.2" width="1.3" height="198" transform="translate(-71.7 190.2) rotate(-45)"/><rect class="cls-98" x="159.6" y="97.1" width="1.3" height="198" transform="translate(-72.6 189.9) rotate(-45)"/><rect class="cls-99" x="158.7" y="98.1" width="1.3" height="198" transform="translate(-73.6 189.5) rotate(-45)"/><rect class="cls-100" x="157.7" y="99" width="1.3" height="198" transform="translate(-74.5 189.1) rotate(-45)"/><rect class="cls-101" x="156.8" y="99.9" width="1.3" height="198" transform="translate(-75.5 188.7) rotate(-45)"/><rect class="cls-102" x="155.8" y="100.9" width="1.3" height="198" transform="translate(-76.4 188.3) rotate(-45)"/><rect class="cls-103" x="154.9" y="101.8" width="1.3" height="198" transform="translate(-77.3 187.9) rotate(-45)"/><rect class="cls-104" x="154" y="102.8" width="1.3" height="198" transform="translate(-78.3 187.5) rotate(-45)"/><rect class="cls-105" x="153" y="103.7" width="1.3" height="198" transform="translate(-79.2 187.1) rotate(-45)"/><rect class="cls-106" x="152.1" y="104.6" width="1.3" height="198" transform="translate(-80.2 186.7) rotate(-45)"/><rect class="cls-107" x="151.1" y="105.6" width="1.3" height="198" transform="translate(-81.1 186.4) rotate(-45)"/><rect class="cls-108" x="150.2" y="106.5" width="1.3" height="198" transform="translate(-82 186) rotate(-45)"/><rect class="cls-108" x="149.3" y="107.5" width="1.3" height="198" transform="translate(-83 185.6) rotate(-45)"/><rect class="cls-109" x="148.3" y="108.4" width="1.3" height="198" transform="translate(-83.9 185.2) rotate(-45)"/><rect class="cls-110" x="147.4" y="109.3" width="1.3" height="198" transform="translate(-84.9 184.8) rotate(-45)"/><rect class="cls-111" x="146.4" y="110.3" width="1.3" height="198" transform="translate(-85.8 184.4) rotate(-45)"/><rect class="cls-112" x="145.5" y="111.2" width="1.3" height="198" transform="translate(-86.7 184) rotate(-45)"/><rect class="cls-112" x="144.6" y="112.2" width="1.3" height="198" transform="translate(-87.7 183.6) rotate(-45)"/><rect class="cls-113" x="143.6" y="113.1" width="1.3" height="198" transform="translate(-88.6 183.2) rotate(-45)"/><rect class="cls-114" x="142.7" y="114" width="1.3" height="198" transform="translate(-89.6 182.8) rotate(-45)"/><rect class="cls-115" x="141.7" y="115" width="1.3" height="198" transform="translate(-90.5 182.5) rotate(-45)"/><rect class="cls-116" x="140.8" y="115.9" width="1.3" height="198" transform="translate(-91.4 182.1) rotate(-45)"/><rect class="cls-117" x="139.9" y="116.9" width="1.3" height="198" transform="translate(-92.4 181.7) rotate(-45)"/><rect class="cls-118" x="138.9" y="117.8" width="1.3" height="198" transform="translate(-93.3 181.3) rotate(-45)"/><rect class="cls-119" x="138" y="118.7" width="1.3" height="198" transform="translate(-94.3 180.9) rotate(-45)"/><rect class="cls-120" x="137" y="119.7" width="1.3" height="198" transform="translate(-95.2 180.5) rotate(-45)"/><rect class="cls-121" x="136.1" y="120.6" width="1.3" height="198" transform="translate(-96.1 180.1) rotate(-45)"/><rect class="cls-122" x="135.2" y="121.6" width="1.3" height="198" transform="translate(-97.1 179.7) rotate(-45)"/><rect class="cls-123" x="134.2" y="122.5" width="1.3" height="198" transform="translate(-98 179.3) rotate(-45)"/><rect class="cls-124" x="133.3" y="123.4" width="1.3" height="198" transform="translate(-99 179) rotate(-45)"/><rect class="cls-125" x="132.3" y="124.4" width="1.3" height="198" transform="translate(-99.9 178.6) rotate(-45)"/><rect class="cls-126" x="131.4" y="125.3" width="1.3" height="198" transform="translate(-100.9 178.2) rotate(-45)"/><rect class="cls-127" x="130.5" y="126.3" width="1.3" height="198" transform="translate(-101.8 177.8) rotate(-45)"/><rect class="cls-128" x="129.5" y="127.2" width="1.3" height="198" transform="translate(-102.7 177.4) rotate(-45)"/><rect class="cls-129" x="128.6" y="128.1" width="1.3" height="198" transform="translate(-103.7 177) rotate(-45)"/><rect class="cls-129" x="127.6" y="129.1" width="1.3" height="198" transform="translate(-104.6 176.6) rotate(-45)"/><rect class="cls-130" x="126.7" y="130" width="1.3" height="198" transform="translate(-105.6 176.2) rotate(-45)"/><rect class="cls-131" x="125.7" y="131" width="1.3" height="198" transform="translate(-106.5 175.8) rotate(-45)"/><rect class="cls-131" x="124.8" y="131.9" width="1.3" height="198" transform="translate(-107.4 175.4) rotate(-45)"/><rect class="cls-132" x="123.9" y="132.8" width="1.3" height="198" transform="translate(-108.4 175.1) rotate(-45)"/><rect class="cls-133" x="122.9" y="133.8" width="1.3" height="198" transform="translate(-109.3 174.7) rotate(-45)"/><rect class="cls-133" x="122" y="134.7" width="1.3" height="198" transform="translate(-110.3 174.3) rotate(-45)"/><rect class="cls-134" x="121" y="135.7" width="1.3" height="198" transform="translate(-111.2 173.9) rotate(-45)"/><rect class="cls-135" x="120.1" y="136.6" width="1.3" height="198" transform="translate(-112.1 173.5) rotate(-45)"/><rect class="cls-135" x="119.2" y="137.5" width="1.3" height="198" transform="translate(-113.1 173.1) rotate(-45)"/><rect class="cls-136" x="118.2" y="138.5" width="1.3" height="198" transform="translate(-114 172.7) rotate(-45)"/><rect class="cls-137" x="117.3" y="139.4" width="1.3" height="198" transform="translate(-115 172.3) rotate(-45)"/><rect class="cls-138" x="116.3" y="140.4" width="1.3" height="198" transform="translate(-115.9 171.9) rotate(-45)"/><rect class="cls-138" x="115.4" y="141.3" width="1.3" height="198" transform="translate(-116.8 171.6) rotate(-45)"/><rect class="cls-139" x="114.5" y="142.3" width="1.3" height="198" transform="translate(-117.8 171.2) rotate(-45)"/><rect class="cls-140" x="113.5" y="143.2" width="1.3" height="198" transform="translate(-118.7 170.8) rotate(-45)"/><rect class="cls-141" x="112.6" y="144.1" width="1.3" height="198" transform="translate(-119.7 170.4) rotate(-45)"/><rect class="cls-141" x="111.6" y="145.1" width="1.3" height="198" transform="translate(-120.6 170) rotate(-45)"/><rect class="cls-141" x="110.7" y="146" width="1.3" height="198" transform="translate(-121.5 169.6) rotate(-45)"/><rect class="cls-142" x="109.8" y="147" width="1.3" height="198" transform="translate(-122.5 169.2) rotate(-45)"/><rect class="cls-143" x="108.8" y="147.9" width="1.3" height="198" transform="translate(-123.4 168.8) rotate(-45)"/><rect class="cls-144" x="107.9" y="148.8" width="1.3" height="198" transform="translate(-124.4 168.4) rotate(-45)"/><rect class="cls-144" x="106.9" y="149.8" width="1.3" height="198" transform="translate(-125.3 168) rotate(-45)"/><rect class="cls-144" x="106" y="150.7" width="1.3" height="198" transform="translate(-126.2 167.7) rotate(-45)"/><rect class="cls-145" x="105.1" y="151.7" width="1.3" height="198" transform="translate(-127.2 167.3) rotate(-45)"/><rect class="cls-145" x="104.1" y="152.6" width="1.3" height="198" transform="translate(-128.1 166.9) rotate(-45)"/><rect class="cls-145" x="103.2" y="153.5" width="1.3" height="198" transform="translate(-129.1 166.5) rotate(-45)"/><rect class="cls-145" x="102.2" y="154.5" width="1.3" height="198" transform="translate(-130 166.1) rotate(-45)"/><rect class="cls-146" x="101.3" y="155.4" width="1.3" height="198" transform="translate(-130.9 165.7) rotate(-45)"/><rect class="cls-146" x="100.4" y="156.4" width="1.3" height="198" transform="translate(-131.9 165.3) rotate(-45)"/><rect class="cls-146" x="99.4" y="157.3" width="1.3" height="198" transform="translate(-132.8 164.9) rotate(-45)"/><rect class="cls-146" x="98.5" y="158.2" width="1.3" height="198" transform="translate(-133.8 164.5) rotate(-45)"/><rect class="cls-146" x="97.5" y="159.2" width="1.3" height="198" transform="translate(-134.7 164.2) rotate(-45)"/><rect class="cls-146" x="96.6" y="160.1" width="1.3" height="198" transform="translate(-135.6 163.8) rotate(-45)"/><rect class="cls-146" x="95.7" y="161.1" width="1.3" height="198" transform="translate(-136.6 163.4) rotate(-45)"/><rect class="cls-146" x="94.7" y="162" width="1.3" height="198" transform="translate(-137.5 163) rotate(-45)"/><rect class="cls-146" x="93.8" y="162.9" width="1.3" height="198" transform="translate(-138.5 162.6) rotate(-45)"/><rect class="cls-147" x="92.8" y="163.9" width="1.3" height="198" transform="translate(-139.4 162.2) rotate(-45)"/><rect class="cls-147" x="91.9" y="164.8" width="1.3" height="198" transform="translate(-140.3 161.8) rotate(-45)"/><rect class="cls-147" x="91" y="165.8" width="1.3" height="198" transform="translate(-141.3 161.4) rotate(-45)"/><rect class="cls-147" x="90" y="166.7" width="1.3" height="198" transform="translate(-142.2 161) rotate(-45)"/><rect class="cls-147" x="89.1" y="167.6" width="1.3" height="198" transform="translate(-143.2 160.6) rotate(-45)"/><rect class="cls-147" x="89.2" y="168.1" height="198" transform="translate(-143.7 160.4) rotate(-45)"/><rect class="cls-134" x="89.2" y="168.1" height="198" transform="translate(-143.7 160.4) rotate(-45)"/><rect class="cls-130" x="89.2" y="168.2" height="198" transform="translate(-143.7 160.4) rotate(-45)"/><rect class="cls-129" x="89.2" y="168.2" height="198" transform="translate(-143.7 160.4) rotate(-45)"/><rect class="cls-148" x="89.1" y="168.2" height="198" transform="translate(-143.8 160.4) rotate(-45)"/><rect class="cls-148" x="89.1" y="168.2" height="198" transform="translate(-143.8 160.4) rotate(-45)"/><rect class="cls-148" x="89.1" y="168.3" height="198" transform="translate(-143.8 160.4) rotate(-45)"/><path class="cls-148" d="M19.1,197.3l140,140Z" transform="translate(19.1 19.1)"/></g><polygon class="cls-1" points="76.4 178.2 197.3 57.3 337.3 197.3 337.3 159.1 197.3 19.1 57.3 159.1 76.4 178.2"/></g></g></svg>